<svg xmlns="http://www.w3.org/2000/svg" version="1.1" xmlns:xlink="http://www.w3.org/1999/xlink" xmlns:svgjs="http://svgjs.dev/svgjs" viewBox="0 0 8.340976501359698 1.830584856359974"><g transform="matrix(1,0,0,1,0.30669242817998743,0.557292428179987)"><g><path d=" M 0.12 0.6645 Q 0.041 0.606 0.035 0.497 L 0.244 0.497 Q 0.247 0.534 0.266 0.5509999999999999 Q 0.28500000000000003 0.568 0.315 0.568 Q 0.342 0.568 0.3595 0.5545 Q 0.377 0.5409999999999999 0.377 0.5169999999999999 Q 0.377 0.486 0.34800000000000003 0.469 Q 0.319 0.45199999999999996 0.254 0.43099999999999994 Q 0.185 0.408 0.14250000000000002 0.38649999999999995 Q 0.1 0.36499999999999994 0.0685 0.32349999999999995 Q 0.037 0.282 0.037 0.21499999999999997 Q 0.037 0.1469999999999999 0.07100000000000001 0.09849999999999992 Q 0.105 0.04999999999999993 0.165 0.02499999999999991 Q 0.225 0 0.301 0 Q 0.424 0 0.4975 0.057499999999999996 Q 0.5710000000000001 0.11499999999999999 0.5760000000000001 0.21899999999999997 L 0.363 0.21899999999999997 Q 0.362 0.18699999999999994 0.3435 0.17099999999999993 Q 0.325 0.15499999999999992 0.296 0.15499999999999992 Q 0.274 0.15499999999999992 0.26 0.16799999999999993 Q 0.246 0.18099999999999994 0.246 0.20499999999999996 Q 0.246 0.22499999999999998 0.2615 0.23949999999999994 Q 0.277 0.25399999999999995 0.3 0.26449999999999996 Q 0.323 0.27499999999999997 0.368 0.291 Q 0.435 0.31399999999999995 0.47850000000000004 0.33649999999999997 Q 0.522 0.359 0.5535 0.39949999999999997 Q 0.585 0.43999999999999995 0.585 0.502 Q 0.585 0.565 0.5535 0.615 Q 0.522 0.6649999999999999 0.4625 0.694 Q 0.403 0.723 0.322 0.723 Q 0.199 0.723 0.12 0.6645 M 1.6789951171875 0.01100000000000001 L 1.5059951171875001 0.716 L 1.2649951171875 0.716 L 1.1679951171875 0.284 L 1.0689951171875 0.716 L 0.8279951171875 0.716 L 0.6569951171875 0.01100000000000001 L 0.8689951171875 0.01100000000000001 L 0.9509951171875 0.493 L 1.0619951171875 0.01100000000000001 L 1.2769951171875 0.01100000000000001 L 1.3849951171875001 0.489 L 1.4669951171875 0.01100000000000001 L 1.6789951171875 0.01100000000000001 M 2.2179838867187502 0.601 L 1.96798388671875 0.601 L 1.92998388671875 0.716 L 1.72398388671875 0.716 L 1.9809838867187501 0.01100000000000001 L 2.20698388671875 0.01100000000000001 L 2.46298388671875 0.716 L 2.25598388671875 0.716 L 2.2179838867187502 0.601 M 2.16898388671875 0.45099999999999996 L 2.0929838867187502 0.22299999999999998 L 2.01798388671875 0.45099999999999996 L 2.16898388671875 0.45099999999999996 M 3.06798876953125 0.01100000000000001 L 3.06798876953125 0.16699999999999993 L 2.8799887695312503 0.16699999999999993 L 2.8799887695312503 0.716 L 2.68398876953125 0.716 L 2.68398876953125 0.16699999999999993 L 2.49798876953125 0.16699999999999993 L 2.49798876953125 0.01100000000000001 L 3.06798876953125 0.01100000000000001" fill="#f5f5dc" fill-rule="nonzero"></path></g><g><path d=" M 5.6306077582809735 0.01100000000000001 L 5.6306077582809735 0.716 L 5.434607758280973 0.716 L 5.434607758280973 0.32699999999999996 L 5.301607758280973 0.716 L 5.137607758280973 0.716 L 5.003607758280973 0.32399999999999995 L 5.003607758280973 0.716 L 4.807607758280973 0.716 L 4.807607758280973 0.01100000000000001 L 5.044607758280973 0.01100000000000001 L 5.221607758280973 0.469 L 5.394607758280973 0.01100000000000001 L 5.6306077582809735 0.01100000000000001 M 6.198605316874723 0.601 L 5.948605316874723 0.601 L 5.910605316874723 0.716 L 5.704605316874723 0.716 L 5.9616053168747225 0.01100000000000001 L 6.1876053168747225 0.01100000000000001 L 6.443605316874723 0.716 L 6.236605316874723 0.716 L 6.198605316874723 0.601 M 6.149605316874723 0.45099999999999996 L 6.073605316874723 0.22299999999999998 L 5.998605316874722 0.45099999999999996 L 6.149605316874723 0.45099999999999996 M 7.0451101996872225 0.3625 Q 7.015610199687223 0.415 6.956110199687223 0.44649999999999995 Q 6.896610199687222 0.478 6.810610199687223 0.478 L 6.713610199687222 0.478 L 6.713610199687222 0.716 L 6.517610199687223 0.716 L 6.517610199687223 0.01100000000000001 L 6.810610199687223 0.01100000000000001 Q 6.895610199687223 0.01100000000000001 6.955110199687223 0.040999999999999925 Q 7.0146101996872225 0.07099999999999995 7.044610199687223 0.124 Q 7.074610199687223 0.17699999999999994 7.074610199687223 0.24599999999999994 Q 7.074610199687223 0.30999999999999994 7.0451101996872225 0.3625 M 6.874610199687223 0.24599999999999994 Q 6.874610199687223 0.16899999999999993 6.791610199687223 0.16899999999999993 L 6.713610199687222 0.16899999999999993 L 6.713610199687222 0.32199999999999995 L 6.791610199687223 0.32199999999999995 Q 6.874610199687223 0.32199999999999995 6.874610199687223 0.24599999999999994 M 7.2275965278122225 0.6645 Q 7.148596527812223 0.606 7.1425965278122225 0.497 L 7.351596527812222 0.497 Q 7.354596527812222 0.534 7.373596527812222 0.5509999999999999 Q 7.3925965278122225 0.568 7.422596527812223 0.568 Q 7.449596527812222 0.568 7.467096527812222 0.5545 Q 7.484596527812222 0.5409999999999999 7.484596527812222 0.5169999999999999 Q 7.484596527812222 0.486 7.455596527812222 0.469 Q 7.426596527812222 0.45199999999999996 7.361596527812223 0.43099999999999994 Q 7.292596527812222 0.408 7.2500965278122225 0.38649999999999995 Q 7.207596527812222 0.36499999999999994 7.176096527812223 0.32349999999999995 Q 7.144596527812222 0.282 7.144596527812222 0.21499999999999997 Q 7.144596527812222 0.1469999999999999 7.178596527812222 0.09849999999999992 Q 7.212596527812223 0.04999999999999993 7.272596527812222 0.02499999999999991 Q 7.332596527812222 0 7.4085965278122226 0 Q 7.531596527812223 0 7.605096527812222 0.057499999999999996 Q 7.678596527812222 0.11499999999999999 7.683596527812222 0.21899999999999997 L 7.470596527812223 0.21899999999999997 Q 7.4695965278122225 0.18699999999999994 7.451096527812222 0.17099999999999993 Q 7.432596527812223 0.15499999999999992 7.403596527812223 0.15499999999999992 Q 7.381596527812222 0.15499999999999992 7.367596527812222 0.16799999999999993 Q 7.353596527812222 0.18099999999999994 7.353596527812222 0.20499999999999996 Q 7.353596527812222 0.22499999999999998 7.369096527812222 0.23949999999999994 Q 7.3845965278122225 0.25399999999999995 7.407596527812222 0.26449999999999996 Q 7.430596527812223 0.27499999999999997 7.475596527812223 0.291 Q 7.542596527812222 0.31399999999999995 7.586096527812223 0.33649999999999997 Q 7.629596527812223 0.359 7.661096527812222 0.39949999999999997 Q 7.692596527812222 0.43999999999999995 7.692596527812222 0.502 Q 7.692596527812222 0.565 7.661096527812222 0.615 Q 7.629596527812223 0.6649999999999999 7.570096527812223 0.694 Q 7.510596527812222 0.723 7.4295965278122225 0.723 Q 7.306596527812222 0.723 7.2275965278122225 0.6645" fill="#f5f5dc" fill-rule="nonzero"></path></g><g></g><g clip-path="url(#SvgjsClipPath1001)"><g clip-path="url(#SvgjsClipPath10003e3ca89f-df7a-4ea8-964b-ccc45b64cd1b)"><path d=" M 3.7975410054848417 0.23280241408585806 C 3.7487694355907806 0.2207611605330177 3.7430408541430675 0.21289840168321433 3.7383681288837565 0.16491310767413508 C 3.7368854372149363 0.14945717027795147 3.734751259812847 0.1340686279576237 3.7325946173854727 0.11582702742608214 C 3.716711844508872 0.11971347680041278 3.7066475131811245 0.12135342364622859 3.697167272510791 0.12467824738843081 C 3.6874650380651897 0.13029204974373132 3.67581060036006 0.13144066001798987 3.6651991336578544 0.1278288869700584 C 3.6545876669556487 0.12421711392212592 3.646053894956946 0.11619714139978987 3.641790985182896 0.10583009117419134 C 3.6236706964273844 0.07937985752324206 3.6032613659939097 0.05457293655437717 3.580798441533714 0.031695507733193407 C 3.5429898039788066 0.06274217267727217 3.549706846539066 0.10706566756487346 3.6003430135317944 0.15044563139049782 C 3.6402858284887913 0.14357133365324182 3.657022272326228 0.15433208076482846 3.6577860831859232 0.1938255952161222 C 3.6562740307369324 0.21860372205132106 3.6525829995332457 0.24320057357568664 3.646755755770914 0.26733115794913376 C 3.6609758720444003 0.2753828004057771 3.674124224476757 0.28519500371350637 3.6858898298176457 0.29653569081982933 C 3.7005401545844436 0.31312486625510094 3.7119680490368783 0.33230087314628587 3.719587367745371 0.3530801594625509 C 3.7290640801376265 0.3830189698870182 3.714122845262862 0.41524057621185173 3.6851484839832356 0.42734953305525614 C 3.6563707865929587 0.43620075301760586 3.64084745412092 0.4255523310324445 3.6224036683618115 0.3882603890590951 C 3.617910663304782 0.3792743789450359 3.6069926610161986 0.36804186630246083 3.5985907415595526 0.36761503082204294 C 3.582865223859948 0.3669635450887734 3.5765300867295355 0.3810940459931328 3.5774736177915116 0.396078217858328 C 3.580079560724589 0.4377508397622818 3.581831832696831 0.47953578679265974 3.5868864633859894 0.5209163633679073 C 3.5908584458706705 0.5355453731897322 3.596975405478547 0.5495053651661237 3.605038203816391 0.562341869993722 C 3.669018595828498 0.544841615296591 3.679172787257386 0.5501208962386017 3.7067823033328353 0.6075415008674455 C 3.711544888693287 0.6174036469676268 3.721249779616472 0.6322530286811104 3.7281690074042984 0.6319834483776894 C 3.740559540119814 0.6295050016366776 3.7517291594093995 0.6228618923643761 3.7598222280310747 0.6131577571887341 C 3.774017844201471 0.6005427941459782 3.7757044857518753 0.578963703721691 3.76364128232955 0.5642963271935295 C 3.7586929291528803 0.5556047084122201 3.7545568208622564 0.5464751893852795 3.751285518422718 0.5370237864973604 C 3.775705000907676 0.49496925916355805 3.8138730788671458 0.4920937359270591 3.862150418204933 0.49577800007382333 C 3.8560623963526575 0.42119411612712543 3.850783115410647 0.35296783433612355 3.844717558583657 0.2848089476209784 C 3.8435365800503893 0.2583874650646645 3.8237227200575763 0.23654504321544395 3.7975410054848417 0.23280241408585806 Z" fill="#8f9779" transform="matrix(1,0,0,1,0,0)" fill-rule="nonzero"></path></g><g clip-path="url(#SvgjsClipPath10003e3ca89f-df7a-4ea8-964b-ccc45b64cd1b)"><path d=" M 3.882346475936283 0.2625910376139673 C 3.885671299678485 0.2955696947325682 3.888749008142551 0.32571775866523855 3.8919839717836124 0.35761809457015215 L 3.938216993820451 0.35555131224391834 C 3.9431817644084695 0.29732196670480937 3.93428561439555 0.28159644900520475 3.882346475936283 0.2625910376139673 Z" fill="#800000" transform="matrix(1,0,0,1,0,0)" fill-rule="nonzero"></path></g><g clip-path="url(#SvgjsClipPath10003e3ca89f-df7a-4ea8-964b-ccc45b64cd1b)"><path d=" M 4.112320939780364 -0.0055515041895845 C 4.098409732903086 -0.01220518658931491 4.081771143427073 -0.008800378704262674 4.071591848938387 0.002783020191206298 C 4.05707944260418 0.019070163522940442 4.034299906965038 0.05153212505998134 4.042656896371113 0.07467110110368513 C 4.049396403956659 0.09331707209035933 4.058202693868438 0.09059880403085718 4.061325332383073 0.10095518068731113 C 4.062502737498867 0.10568933418305787 4.0628598616323695 0.11059029303644896 4.062381188571475 0.11544512199623258 C 4.060426731371668 0.15181599793289152 4.046183905340882 0.1958474474917854 4.075635553489714 0.22684918238529156 C 4.105087201638546 0.2578509172787987 4.150870923169681 0.25329051714591444 4.16120483480085 0.20860758185374995 C 4.169561824206927 0.1723939610940879 4.169696614358637 0.1377528921043869 4.135347590697643 0.11277178398729987 C 4.140402221386801 0.10086532058617009 4.143861835280715 0.09111549961241505 4.148534560540026 0.08194976929607373 C 4.1785478343209865 0.02282182274556055 4.175739706160343 0.016688870842714032 4.112320939780364 -0.0055515041895845 Z M 4.116005203927129 0.021002155697463665 C 4.12595721012845 0.018755653168947783 4.122564991310393 0.0711216271086324 4.1177125458488 0.07806331992174526 C 4.1142014918721515 0.08451354982003795 4.107973932643524 0.08904111863390307 4.100755269071275 0.09039162298356851 C 4.093536605499026 0.09174212733323511 4.086093451345761 0.08977214521121579 4.080487998951306 0.08502747776014125 C 4.062448583647331 0.07080711675464085 4.058854179601707 0.034234055590416645 4.116005203927129 0.021002155697463665 Z M 4.146288058011511 0.17255121627108477 C 4.132809042840421 0.1848171200767767 4.1262043254065865 0.1951510317079454 4.117083525140815 0.19818381012144126 C 4.10344725479273 0.20267681517847086 4.086014395171453 0.18533381565833568 4.088081177497687 0.1678784910117741 C 4.0891370336860895 0.1588924808977149 4.099493410342543 0.15080507179506103 4.10567129229596 0.14231329223727446 Z" fill="#8f9779" transform="matrix(1,0,0,1,0,0)" fill-rule="nonzero"></path></g><g clip-path="url(#SvgjsClipPath10003e3ca89f-df7a-4ea8-964b-ccc45b64cd1b)"><path d=" M 3.866755748388389 0.5611961537041811 C 3.865767287275842 0.5403261452142772 3.851524461245057 0.5323285962127623 3.8368997297844247 0.5263978295374843 C 3.82530426411573 0.5213188093115416 3.812303651151655 0.5204293354862659 3.8001244833926338 0.5238817467055484 C 3.784398965693029 0.5301270237348191 3.788757180598348 0.545785146358569 3.793721951186366 0.5588822560998105 C 3.8066168757000423 0.5928493743309577 3.7921044693658352 0.6205262854822627 3.771930876659771 0.645619718725775 C 3.760515229740399 0.6596667610550758 3.7425813326655346 0.6667159590737213 3.724656056693019 0.6642018242129608 C 3.706730780720504 0.6616876893522005 3.6914280994017816 0.6499768481588644 3.6843172780476854 0.6333313498947968 C 3.680204557344216 0.6221408011744746 3.6754490323152527 0.6111970929453618 3.6700744520169004 0.6005548780037632 C 3.6588419393743252 0.58226834742165 3.6234370595249286 0.5789210586541625 3.601533659871907 0.5929392344320966 C 3.5930489905225627 0.5992133643584331 3.587812252115522 0.6089510460651867 3.58725580199657 0.6194888201928355 C 3.586699351877618 0.6300265943204854 3.5908814248646506 0.6402616390051441 3.5986581366354082 0.6473944557233002 C 3.6478116119593165 0.697244346831048 3.6982680587497634 0.7458811265733978 3.7493535262481945 0.7937765604813382 C 3.7785580591188896 0.8211838913292221 3.8100090945181 0.8462997895980197 3.840606458956474 0.8722244287770825 C 3.8512998109922054 0.8812104388911427 3.862577253685351 0.8896123583477892 3.880594203964041 0.9038327193532886 C 3.882028072539654 0.8938746202771816 3.882950349598231 0.8838495436323249 3.8833574020741146 0.8737969805470435 C 3.877853470879253 0.7695817282492333 3.871698053951122 0.6654114060019924 3.866755748388389 0.5611961537041811 Z" fill="#800000" transform="matrix(1,0,0,1,0,0)" fill-rule="nonzero"></path></g><g clip-path="url(#SvgjsClipPath10003e3ca89f-df7a-4ea8-964b-ccc45b64cd1b)"><path d=" M 3.785522216957286 0.05485694880218461 C 3.780400191192272 0.05261044627366873 3.7768731822225035 0.04681446975010012 3.772447572241329 0.0428606252999148 C 3.7246869284851 0.0001770772581304314 3.677510375386285 -0.04306809641578449 3.628873595643935 -0.08465085821859725 C 3.6072397762943353 -0.10313957402827459 3.582618108581811 -0.11814621091875502 3.556985514731455 -0.13632041637444187 L 3.556985514731455 -0.014133143848511026 C 3.5824159233542447 -0.0011258942084085566 3.613013287792619 -0.00842702742608245 3.619595540201168 0.018486072865526726 C 3.629878434810965 0.04926903810709893 3.650284538703042 0.07566156595820211 3.6774879103609996 0.0933620021409331 C 3.681705094644392 0.09256026857270638 3.685798760784764 0.09120830134184527 3.689663954065551 0.08934076261489193 C 3.705389471765156 0.07925396626185899 3.7211149894647613 0.05845135284781 3.7400754708054276 0.07635597800007576 C 3.751805479440412 0.09101660469081091 3.760234415040973 0.10803539193521727 3.7647869986190927 0.12625079915839404 C 3.7676849868808775 0.13404616293234056 3.7639782577088274 0.14404309918423241 3.7650790439478 0.15282692407072634 C 3.7661199840496895 0.16463106784777376 3.7686796645081 0.17625156408816822 3.772694687519466 0.18740059798457048 C 3.781860417835807 0.21002287844671746 3.805246509157648 0.20791116606991422 3.822724298829495 0.20865251190432482 C 3.8419318954482984 0.2094837178398743 3.8424261260045713 0.18960217046251687 3.8429428215861297 0.17468539367317754 C 3.8444479782802348 0.12494782769185292 3.839258557439365 0.07835536525045156 3.785522216957286 0.05485694880218461 Z" fill="#800000" transform="matrix(1,0,0,1,0,0)" fill-rule="nonzero"></path></g><g clip-path="url(#SvgjsClipPath10003e3ca89f-df7a-4ea8-964b-ccc45b64cd1b)"><path d=" M 3.482334235708901 0.3377590122180789 C 3.4895904388760046 0.34652037207928754 3.493387028149195 0.3553940570669226 3.498194543560217 0.3559781477243352 C 3.50830713243891 0.35773612981819414 3.5187163744521985 0.3562827639521866 3.527960702063041 0.35182211804658137 C 3.5439558000660676 0.34200490199697164 3.5434615695097946 0.3286157469270229 3.5292412085042946 0.3149120815030815 Z" fill="#800000" transform="matrix(1,0,0,1,0,0)" fill-rule="nonzero"></path></g><g clip-path="url(#SvgjsClipPath10003e3ca89f-df7a-4ea8-964b-ccc45b64cd1b)"><path d=" M 3.5334197032073327 0.23282487911114225 C 3.532004406614368 0.2107417592558395 3.53083622529954 0.19191606806688316 3.529151348403154 0.16563198848325933 C 3.4864453353360836 0.19661125835148124 3.4882425373588957 0.20946125281458688 3.5334197032073327 0.23282487911114225 Z" fill="#800000" transform="matrix(1,0,0,1,0,0)" fill-rule="nonzero"></path></g><g clip-path="url(#SvgjsClipPath10003e3ca89f-df7a-4ea8-964b-ccc45b64cd1b)"><path d=" M 3.491028200494254 0.5152327119707639 C 3.4670860468398867 0.5461085936683916 3.42410430148332 0.5547202523551473 3.3901153069133603 0.5354512347273992 C 3.3656284293525465 0.5248926728433779 3.357743205477459 0.50496619541545 3.3614274696242235 0.46266455280351193 C 3.362213745509204 0.45367854268945274 3.363426856874602 0.44484978775238826 3.3644377830124337 0.43595363773946794 C 3.366684285540949 0.4170830164999433 3.376434106514704 0.3937867852792415 3.368795997917753 0.3806222804621433 C 3.361157889320802 0.367457775645045 3.336131851153145 0.3648967627625386 3.318631596456013 0.35777534974714575 C 3.265322091454352 0.3365234358273935 3.258155748388389 0.29184050053523025 3.303243054135685 0.25569427485142504 C 3.315590091692125 0.24747666371202726 3.3286943812449072 0.24045812057038202 3.3423771281824166 0.23473440626038022 C 3.35111602301834 0.23024140120334952 3.359922312930119 0.22574839614631992 3.3670886559960818 0.2221090620501251 C 3.3675487457250117 0.21795498531068003 3.3677064159507646 0.21377297027522973 3.36756042152707 0.2095960429662963 C 3.3673806701609212 0.20659347061262306 3.366369521079199 0.20370002862492403 3.36463996824 0.20123905356022026 C 3.3279770469746355 0.16232962976633913 3.3417031774238617 0.1215106788232233 3.36014696318297 0.0807366579306758 C 3.368718441484202 0.05940161170102787 3.385744381673019 0.04257005718338086 3.4071764408689726 0.034244117205767144 C 3.428608500064927 0.025918177228153427 3.452531940247155 0.02684169043383061 3.4732583654937006 0.036795068472921966 C 3.4837495323018657 0.04128807352995151 3.4951393001214366 0.04398387656416952 3.5116286286807368 0.04926315750618021 C 3.5323413819936453 -0.01206636152227944 3.520502313668371 -0.06980147650511476 3.517626790431872 -0.12717715108338795 L 3.5071131585984214 -0.13068169502787122 C 3.4570610822631074 -0.0890090731239174 3.4064473802956643 -0.04794300690266362 3.357159114820045 -0.00539424901258978 C 3.3178228555457476 0.028505474142701714 3.281429514583804 0.0659322062677617 3.2411721892728154 0.09861881805765527 C 3.211997521933443 0.12051762681384176 3.198928314904547 0.15786202082920092 3.208081207027789 0.19317410948285163 C 3.216369908834993 0.24296179908394983 3.2213530664446295 0.29324366050648953 3.222997983817129 0.34368977889335584 C 3.2256263917754913 0.43447094607064796 3.222009522704582 0.5254992285260769 3.2256039267502064 0.6161905356022268 C 3.2290410756188344 0.7025460927983429 3.238274201011031 0.7886320696910379 3.2451934287988573 0.8748079066848741 C 3.2458898445826967 0.8831648960909501 3.2483385323387783 0.8913870953453146 3.251281450651133 0.9065509874127907 C 3.2662206924657577 0.8959025654276306 3.2768466494256336 0.8891181277915144 3.2865964703993886 0.881232903916427 C 3.3451085418995596 0.8303210429989444 3.3990301127243825 0.7743622847081341 3.4477380967697675 0.7140032556937717 C 3.472112649204158 0.6860342992137571 3.499722165279607 0.6609633309955302 3.5242989029415615 0.6331291646672293 C 3.534895428785728 0.6229756642213796 3.541978029852525 0.6097075915562455 3.5445174256981966 0.5952531320364661 C 3.5469590374205553 0.5602865138816868 3.542743420001204 0.5251741561356944 3.5320942667155086 0.4917792255730653 C 3.5081465497615385 0.48602817910006835 3.5014070421759937 0.5029443431397868 3.491028200494254 0.5152327119707639 Z" fill="#800000" transform="matrix(1,0,0,1,0,0)" fill-rule="nonzero"></path></g><g clip-path="url(#SvgjsClipPath10003e3ca89f-df7a-4ea8-964b-ccc45b64cd1b)"><path d=" M 3.505765257081313 0.39131563249787626 C 3.479690124675702 0.38867304905425737 3.4583588876217832 0.3693893923489433 3.453107237812921 0.3437122439186422 C 3.4488164179834575 0.31408087556752873 3.4681812697792567 0.3061507216418706 3.49183694140452 0.29927642390461573 C 3.5025302934402514 0.29615378538997983 3.5108198877704715 0.2848089476209784 3.5273092163297717 0.27137486250045917 C 3.511945273116707 0.26039731884894 3.497242564224871 0.24852263100415622 3.483277766770877 0.23581272747406545 C 3.470913658036915 0.22557584532289127 3.4641412506638307 0.21007883271152272 3.4650274802462335 0.1940513707137656 C 3.465913709828637 0.17802390871600737 3.4743534039336 0.16336804078133682 3.4877707718279076 0.15455673101767897 C 3.500902146860221 0.14488473158667564 3.511512444701 0.13219398318888032 3.518705111645559 0.11755683437303577 C 3.5227712812221714 0.10798673360156186 3.519716037783391 0.08677974973238017 3.512841740046135 0.08275851020633901 C 3.4902432089983946 0.06896247074400785 3.4655093645388635 0.0590173092209913 3.4396506876671165 0.053329327082791866 C 3.423580363215122 0.05263765856809055 3.407881172285716 0.05828484954989094 3.3959337484622143 0.06905484478239543 C 3.366964318080858 0.09974407073707409 3.362558004662053 0.14619550085380317 3.385240396426483 0.18178434166328078 C 3.4037515772614464 0.20863004687903308 3.401909445188064 0.22716369273928205 3.376254386312423 0.24711263519249632 C 3.366401138435784 0.25359178121414716 3.3556333621607415 0.2585591941792854 3.3443091203569395 0.26184969177955564 C 3.3212154666783578 0.2688117906778047 3.3046183821569888 0.289038932722832 3.302299523073709 0.313047484404414 C 3.315185074925374 0.3279996082473129 3.333104019543105 0.33771036547770716 3.3526661097630153 0.3403424901258695 C 3.3924965995935863 0.3509684470857467 3.4012354944295096 0.36204370455132595 3.3979556007378777 0.403918511682845 C 3.3955200494578164 0.4260664677484488 3.391943355765141 0.4480740065073613 3.3872397836768604 0.4698533608947627 C 3.3843193303897916 0.4855788785943652 3.384813560946065 0.5001586800044278 3.4011231693030837 0.5083808792587922 C 3.4149067261613393 0.5181539637503562 3.433157917367937 0.5188762599274513 3.447670701693915 0.5102230113321743 C 3.455039229987444 0.5052133106935858 3.462385293255688 0.5000912849285708 3.469326986068799 0.4944974936325697 C 3.4843111579339947 0.4825011701302998 3.4982394736107874 0.46906708500977945 3.514054851411533 0.4582838728729065 C 3.5434391044845093 0.43826753534383744 3.543865939964927 0.4388740910265375 3.535464020508281 0.3936070650769594 C 3.5259837798379476 0.3929780443689773 3.5157397283079193 0.3929106492931226 3.505765257081313 0.39131563249787626 Z" fill="#8f9779" transform="matrix(1,0,0,1,0,0)" fill-rule="nonzero"></path></g><g clip-path="url(#SvgjsClipPath10003e3ca89f-df7a-4ea8-964b-ccc45b64cd1b)"><path d=" M 4.3785090243841065 0.17540427448229956 C 4.38493402161566 0.18614255656860096 4.391359018847213 0.19690330368018755 4.40137842012439 0.21372960761876592 C 4.408994063696055 0.18603023144217568 4.401917580731233 0.1752694843305891 4.3785090243841065 0.17540427448229956 Z" fill="#800000" transform="matrix(1,0,0,1,0,0)" fill-rule="nonzero"></path></g><g clip-path="url(#SvgjsClipPath10003e3ca89f-df7a-4ea8-964b-ccc45b64cd1b)"><path d=" M 4.601137424959944 0.33281670665534613 C 4.59615018934664 0.26131053117271363 4.592870295655009 0.18964710051308525 4.590556398050638 0.11800613487874112 C 4.591697636903602 0.09673310450064254 4.581237080880391 0.0765082168074489 4.563216462278611 0.06514593038278171 C 4.479910043951387 0.009896881289790271 4.402247965896383 -0.0534231833195363 4.331354936310578 -0.12389725739175414 C 4.308126100165731 -0.1455984718172095 4.281212999874122 -0.16336830681776263 4.248818433412936 -0.18848420508656016 C 4.2569058425155895 -0.08559438928057414 4.264184510707978 0.006849189767819008 4.2720697345830665 0.10702073751430291 C 4.2815499752534 0.09695640618655632 4.285750934981722 0.09453018345575942 4.286761861119555 0.09113796463770246 C 4.301678637908894 0.04171490901037267 4.344182465748398 0.03762627440847466 4.384237605831821 0.036076187663798776 C 4.42467465134509 0.03450363589383876 4.449543434335752 0.060787715477464754 4.463157239658552 0.09751803181868474 C 4.469571318742387 0.1204577049926896 4.478091847529996 0.14275547009000228 4.488610113306627 0.164126831789154 C 4.4982565217803785 0.1791792369863659 4.504879647081726 0.19596596010038037 4.508109755254138 0.21354988741648379 C 4.5151702905706115 0.2517820842365076 4.508190090059777 0.2912780530698057 4.488452858129631 0.3247742276032617 C 4.475198493211392 0.34883426968365816 4.466886433855887 0.3739501679524557 4.489036948787045 0.3994030416005301 C 4.514560044966048 0.4263196257224594 4.526934459983256 0.4631102076013074 4.52286571882266 0.49997992803316893 C 4.518796977662065 0.5368496484650317 4.498698011820208 0.57005664522912 4.467919825019004 0.5907601269794366 C 4.415082085548331 0.5955676423904599 4.393470731224017 0.5600279723893525 4.374824760237343 0.5238817467055463 C 4.368007085204424 0.5058324377202211 4.363683884590172 0.48693733014044316 4.361974765774237 0.46771918349267205 C 4.361402625220967 0.45733606031245744 4.359845545973877 0.4470307532181871 4.357324505540211 0.4369420988520165 C 4.3500307550218755 0.41959753628708163 4.331459070635819 0.40986412686506446 4.31304594070318 0.4137357277324558 C 4.304688951297104 0.41476911889557266 4.290783100645596 0.42364280388320663 4.29058091541803 0.42946124543206043 C 4.287885112383812 0.47958071684323034 4.278517196839904 0.5317220405300644 4.32351464248606 0.5713503451330676 C 4.3850912767926555 0.6255359861208492 4.445904100239558 0.6805752980694676 4.507323479369157 0.7349181942342449 C 4.543963935609237 0.7673576907460026 4.58114355245616 0.799168166549774 4.624141610851938 0.8363702484219836 C 4.641282425144507 0.7840267395075843 4.631442744069611 0.7217986194677172 4.62746643459414 0.6676803735557914 C 4.619019585086924 0.5560741279391661 4.608932788733891 0.44451281237311135 4.601137424959944 0.33281670665534613 Z" fill="#800000" transform="matrix(1,0,0,1,0,0)" fill-rule="nonzero"></path></g><g clip-path="url(#SvgjsClipPath10003e3ca89f-df7a-4ea8-964b-ccc45b64cd1b)"><path d=" M 4.453654533962934 0.321314613709349 C 4.460698356404426 0.30985769152045184 4.466777366376525 0.29783492766957564 4.47182873941862 0.2853705732531079 C 4.482364836277355 0.2569747812926787 4.491912472023545 0.22624262670259365 4.47252515520246 0.19948678158798028 C 4.452146475614171 0.17416160681297227 4.4387134912337185 0.14396642578486735 4.433548336332724 0.11187318297589571 C 4.428561100719421 0.07525519176110096 4.3991319175958745 0.060989900705031075 4.36325527221549 0.06918963493411134 C 4.348268692236523 0.07145011680843405 4.335002999879287 0.08010885303805843 4.326901802006539 0.09291814461865305 C 4.31880060413379 0.10572743619924768 4.316662855845051 0.121424007132576 4.321043489704693 0.13593322505629218 C 4.325064729230735 0.16241948986748345 4.329333084034913 0.18888328965339157 4.33407320437008 0.21523476431287125 C 4.335797948911584 0.2214398719307099 4.338130631027491 0.22745969674595273 4.341037362208477 0.2332067845409907 L 4.350337882676529 0.23338650474327177 C 4.353596304575442 0.22337550069439938 4.355853855137255 0.21306601979545192 4.357077390262074 0.20260942010261612 C 4.35727957548964 0.19575758739064542 4.351798109320064 0.18888328965338946 4.349596536842119 0.1817618766379966 C 4.34235472811463 0.16436112891771748 4.349068982958499 0.14428550693454784 4.365322054541724 0.1347425787161774 C 4.379150275036036 0.1310215830177896 4.393900903964839 0.13316712904379663 4.406096075434271 0.14067334539145754 C 4.429566917939165 0.15288648615519035 4.4415634029278515 0.1796321379594253 4.435075958052115 0.20528275811154884 C 4.429886537211245 0.23464454615924019 4.425483392255356 0.2641186593333569 4.42000192608578 0.29343551733047657 C 4.413240517808488 0.3236960043940629 4.385301431449682 0.344413587774129 4.354381587227856 0.3420947620981106 C 4.325856274318529 0.3371290146093031 4.304857179079571 0.3126347805934706 4.304307045867256 0.2836856963567216 C 4.303397166976203 0.2763573628110144 4.301894575298067 0.2691148709223994 4.299814040810226 0.2620294119818357 C 4.275484418426409 0.2963784356428303 4.2874582769033935 0.3305477391015439 4.291951281960424 0.36557071352109227 C 4.295893621592465 0.36800032648063663 4.29997419648333 0.3701981361185471 4.304172255715546 0.372152965929642 C 4.308395680469154 0.3736581226237473 4.312798825425043 0.37464658373629356 4.317134575305078 0.3757249049499799 C 4.3681751127529385 0.38814806393266876 4.3968404850167895 0.4174424569045043 4.397536900800629 0.4730883245358206 C 4.399581904970652 0.49367724235186194 4.405641836321231 0.5136658572223491 4.415374130877038 0.5319242257576297 C 4.420905366863807 0.548553134094783 4.438622639581365 0.5578042731301427 4.455429270960461 0.552839164298105 C 4.468682819789988 0.5471650557045556 4.4791727904708285 0.5365056316511767 4.484633803831156 0.5231628658964199 C 4.500920207143241 0.486578538008523 4.493364710209238 0.4437699812624556 4.465538532338778 0.414971304123139 C 4.438269055231156 0.39135316081120364 4.433148050655969 0.3509949981005156 4.453654533962934 0.321314613709349 Z" fill="#8f9779" transform="matrix(1,0,0,1,0,0)" fill-rule="nonzero"></path></g><g clip-path="url(#SvgjsClipPath10003e3ca89f-df7a-4ea8-964b-ccc45b64cd1b)"><path d=" M 4.153387006001618 0.4453889483592336 L 4.113623911246902 0.4173750618286507 C 4.100863776884937 0.4206549555202834 4.087923922320691 0.42330582850393084 4.075433368262147 0.42730460300468676 C 4.047097515634849 0.43494751520279773 4.0286453655390675 0.46220506956708474 4.032075869461808 0.4913523900926495 C 4.040859694348302 0.5401913550625657 4.021854282957065 0.5813472813849605 4.002871336591113 0.6233119486176217 C 3.9966925617886195 0.635042592824456 3.992085083700126 0.6475356563627658 3.9891676711671717 0.6604691004392597 C 3.9856406621974028 0.6825072902439918 3.9964912694101304 0.6939419881141332 4.018506994189577 0.696188490642648 C 4.037060861991934 0.6980013088771192 4.054250999350837 0.6862700098539828 4.059325945132695 0.6683318592890619 C 4.071614313963672 0.6413738289468822 4.08259971132811 0.6138092429220026 4.095517100867072 0.5871657229338144 C 4.100996168530641 0.5695077546524636 4.1186880696845085 0.5586219077135133 4.136920142467603 0.5616903842604537 C 4.147428082702951 0.5637109543376206 4.158306486995703 0.5613937230236 4.167078791170295 0.5552662283565432 C 4.1758510953448855 0.5491387336894873 4.181770766615769 0.5397224322412579 4.18349013988372 0.529161027647557 C 4.19069933194505 0.49775298864961937 4.178938516700535 0.46502457070424996 4.153387006001618 0.4453889483592314 Z M 4.098415089128856 0.543516178804769 C 4.072265799696941 0.5477620685836628 4.052833552825287 0.5289363773947064 4.062201468369194 0.5047415451625994 C 4.069748604889761 0.48748767846839747 4.081054146556521 0.4721373163954047 4.09529245061422 0.4598114945922992 C 4.104624287656964 0.45339434521039557 4.116455834994496 0.45180901799309614 4.127147856468563 0.4555431397881201 C 4.135325125672358 0.459182473884315 4.138941994743266 0.4729759994093975 4.140626871639653 0.4757616625447555 C 4.140020315956954 0.518984371193384 4.125620234749173 0.5391130338488783 4.098415089128856 0.543516178804769 Z" fill="#8f9779" transform="matrix(1,0,0,1,0,0)" fill-rule="nonzero"></path></g><g clip-path="url(#SvgjsClipPath10003e3ca89f-df7a-4ea8-964b-ccc45b64cd1b)"><path d=" M 4.226420803203641 0.2763396330884782 C 4.2354264269805215 0.26675287191356234 4.241241732979823 0.2546121453536152 4.243067386939938 0.24158623897235093 C 4.241629625321687 0.1939828503931169 4.236934435037091 0.14646932191502615 4.233025520637475 0.09895579343693317 C 4.232171849676639 0.08866681185633396 4.228532515580445 0.07855755047801682 4.228060750049457 0.06826856889741867 C 4.225432342091095 0.011881355431691776 4.223904720371705 -0.04459571813517507 4.220871941958209 -0.10098293160090194 C 4.219648841621479 -0.12337500750860952 4.216818449709535 -0.14565026693230948 4.212402627425709 -0.16763666162193633 C 4.2084487829755215 -0.18720369864530645 4.195958228916978 -0.19322432542172768 4.179379040256537 -0.18313752906869477 C 4.165772245698163 -0.1739696186053028 4.15325349222443 -0.16328232635620427 4.1420646332579025 -0.15128212321435175 C 4.065683547288392 -0.07582210328153385 3.990335852481999 0.0009633531431093578 3.9124945398689546 0.07496314643239466 C 3.8922269912347165 0.09252132088289905 3.880981140060827 0.11829925580571948 3.88189717543058 0.14509895537263456 C 3.882166755734002 0.19227550847144853 3.881313084773166 0.23549821712007712 3.937430717935471 0.2592662138717662 C 3.978496784156725 0.2766766084677561 3.964501073404077 0.32019136244509216 3.96268140635598 0.35550638219334785 C 3.9610189944848786 0.3881031338821014 3.9368241622527718 0.3911808423461668 3.9132583507286496 0.3961231479088996 C 3.9108321279978533 0.3966173784651722 3.908989995924471 0.3999422022073754 3.9038455051341714 0.4047946476689682 C 3.9054629869547024 0.4807039681074904 3.9032389494514725 0.5594888117825115 3.909911061961162 0.6375098445978369 C 3.9166505695467073 0.7168338488797013 3.9117756590598294 0.797326034476394 3.9263105304193218 0.8791211915396259 C 3.932149314181306 0.8767938765254989 3.937740929877633 0.8738889456253868 3.9430020442061884 0.870449691779556 C 3.996513734435416 0.8208019858993757 4.050115284765783 0.7712216750950501 4.103110279413452 0.7210348086080235 C 4.1280239924546835 0.6974689970839018 4.151365153725955 0.6722632387139631 4.17603175148905 0.6484952419622751 C 4.25315418329297 0.5741809383189983 4.2511547960425915 0.5763375807463731 4.249851824576052 0.4623725074748056 C 4.249851824576052 0.4556329998892612 4.250301125081756 0.44869130707615046 4.250817820663314 0.4419293344653187 C 4.254476339919472 0.41296587130263096 4.244877537355953 0.3838970986210234 4.224690996256685 0.36280751541102174 C 4.195419068310134 0.3311767598095303 4.199058402406329 0.31172204791258973 4.226420803203641 0.2763396330884782 Z M 4.01974257058026 0.03441377579269772 C 4.026883797066909 0.02129440778513242 4.03468929345762 0.008547679769561778 4.043128661902101 -0.003776767192059216 C 4.066740730126747 -0.03624180677836289 4.109944400731394 -0.047596858465541375 4.146467778213792 -0.03093698276180415 C 4.197261200383516 -0.0024962607508033363 4.208493713026091 0.025787206083199565 4.18807300504189 0.07487328633125251 C 4.184096695566419 0.08444338710272647 4.178750019548553 0.09345186224207092 4.173088833176695 0.10452711970765022 C 4.198990282899631 0.1418416621919269 4.203902802249549 0.18984690309319668 4.186096082816797 0.23163423277102957 C 4.17019084491491 0.2713299324498897 4.148017864958468 0.2882236314643227 4.096999792535891 0.27420545568638865 C 4.053215458255134 0.2622091321841189 4.0303909925654215 0.2255686759440378 4.012733482691294 0.18672664722601356 C 4.009768099353654 0.180234254918606 4.014036454157832 0.16965322800930044 4.016844582318477 0.161610748957216 C 4.0207534967180925 0.15037823631464098 4.026459613140521 0.13990953453176175 4.032075869461808 0.12764363072606982 C 3.9951433678930215 0.0860159388726876 3.9944020220586114 0.07988298696984109 4.019765035605546 0.03448117086855351 Z M 4.156172669136977 0.5970952641098516 C 4.116252319205265 0.5995664168912179 4.11020922740356 0.628209324129784 4.096348306802622 0.6526512716400279 C 4.088305827750538 0.6668267025949567 4.083588172440657 0.6830015208002655 4.074692022427738 0.6965030009966406 C 4.05684552736531 0.7234703110307354 4.022381861206602 0.7339940713093782 3.9925149599346588 0.721596434240153 C 3.964182256001957 0.7084406467456518 3.9499739933999964 0.6763351608661703 3.959289187537922 0.6465183197371824 C 3.9601888733268247 0.634592684397489 3.9640496237076968 0.6230799267617271 3.970521700180497 0.6130229670370235 C 4.007027366268866 0.5751918644568309 4.001411109947578 0.5287341921671401 4.002129990756703 0.4827258203831536 C 4.0025486041140015 0.4668857500809437 4.007019029849658 0.451417148919503 4.01511477537152 0.4377957698128534 C 4.046366787435258 0.39534417162403146 4.100801422983178 0.37692414413435193 4.1514100837765255 0.3916750729024394 C 4.167723952473424 0.39815473529664325 4.181241713925922 0.41016168811621445 4.18960062676128 0.4255972610830151 C 4.20070077939999 0.45456833066151714 4.2097907058934165 0.484270097081407 4.216805772381597 0.5144913661363534 C 4.2141998294485195 0.5458525414344237 4.186096082816797 0.5952531320364693 4.156172669136977 0.5970952641098516 Z" fill="#800000" transform="matrix(1,0,0,1,0,0)" fill-rule="nonzero"></path></g><g clip-path="url(#SvgjsClipPath10003e3ca89f-df7a-4ea8-964b-ccc45b64cd1b)"><path d=" M 4.3429693543829995 0.2956146247831366 C 4.348025428775348 0.30033730761719035 4.355093339369691 0.3022473263135186 4.361839975622526 0.3007141855228652 C 4.38340639989627 0.2921999409397934 4.390325627684096 0.27353150492783496 4.391516274024209 0.24351823114687415 C 4.373881229175366 0.25675013103982713 4.359548543043441 0.2662528367354453 4.3469681288837565 0.27766506958030135 C 4.342991819408285 0.2812370086006415 4.340453271551063 0.2926717064707829 4.3429693543829995 0.2956146247831366 Z" fill="#800000" transform="matrix(1,0,0,1,0,0)" fill-rule="nonzero"></path></g><g clip-path="url(#SvgjsClipPath10003e3ca89f-df7a-4ea8-964b-ccc45b64cd1b)"><path d=" M 4.276899715019374 0.15264720386844316 C 4.27893654397856 0.17270098310632093 4.280995837963032 0.19273978566067412 4.28307759697279 0.2127636115315038 L 4.298488604318402 0.21033738880070796 C 4.304311285203553 0.18847208088830414 4.295646564918894 0.16531807288518013 4.276899715019374 0.15264720386844316 Z" fill="#800000" transform="matrix(1,0,0,1,0,0)" fill-rule="nonzero"></path></g><g clip-path="url(#SvgjsClipPath10003e3ca89f-df7a-4ea8-964b-ccc45b64cd1b)"><path d=" M 3.6487102129707227 0.2997931194861757 C 3.604049742703844 0.2793724115019741 3.604274392956696 0.2794622716031152 3.6232348742973626 0.23363362002140858 C 3.629749731630056 0.21790810232180396 3.639971318134799 0.2020477944704877 3.632333209537848 0.18838905909711678 L 3.568824583056729 0.1959148425676412 C 3.571071085585244 0.23664393340961815 3.5734973083160404 0.28096742829721943 3.575856135970981 0.3239654866929964 C 3.5964171195160435 0.3279603941302096 3.6162246564321805 0.33515417619428045 3.634557247041078 0.3452847956886044 C 3.6486996432842096 0.3612498331355777 3.6605340652521883 0.37911867601758054 3.669715011612338 0.39836965043741324 C 3.6771734000070078 0.3904844265623256 3.6843622080982557 0.38630593185928874 3.6861594101210677 0.38039763020929385 C 3.6975221812093357 0.3478234766712256 3.6809329272083087 0.31211727189876926 3.6487102129707227 0.2997931194861757 Z" fill="#800000" transform="matrix(1,0,0,1,0,0)" fill-rule="nonzero"></path></g><g clip-path="url(#SvgjsClipPath10003e3ca89f-df7a-4ea8-964b-ccc45b64cd1b)"><path d=" M 4.65372804915248 0.5313176700749318 C 4.649706809626439 0.47776104979513334 4.6439782281787245 0.4242942896164772 4.641552005447929 0.3706702742608241 C 4.637253697276703 0.27673651520185016 4.634198453837923 0.1827728027758293 4.632386275131587 0.08877913698276135 C 4.633898614498607 0.07072125378597699 4.624732258858651 0.053442146602608875 4.608932788733891 0.04456796722158535 C 4.556448503214829 0.01680297298586969 4.50720394641528 -0.016694777860335602 4.462101383470151 -0.05531153519619114 C 4.396301324409945 -0.11783170056476558 4.3228182267022195 -0.17237678195710923 4.253176648318255 -0.23087570779964037 C 4.221500962666193 -0.2574518327119727 4.209504639163923 -0.25666555682699266 4.1763687268683265 -0.2315721235834804 C 4.10571622234653 -0.1780379683289673 4.047823852186698 -0.11149656343435277 3.9860450326525356 -0.04890900298992576 C 3.9568404997818405 -0.01923270458824175 3.927905547214567 0.010937824369713856 3.898206783787599 0.04018728729097992 C 3.883694377453392 0.05445257834704981 3.8656998921999866 0.06507853530692592 3.846020530050195 0.05234086597024551 C 3.8197816971272958 0.035695640938690765 3.7947871816038097 0.017165612608272762 3.771234460875931 -0.0031028164335033803 C 3.7008964667081257 -0.06494903104352306 3.6319513041080005 -0.12827793732236065 3.5621749355723242 -0.190798102690934 C 3.555448674808994 -0.19919946601361954 3.54515938666796 -0.20394362679600658 3.5344025428397665 -0.20360333222954427 C 3.523645699011573 -0.20326303766308193 3.5136768495391366 -0.19787800728487026 3.5074950640282694 -0.1890682957439771 C 3.4872765412716342 -0.16936646856890075 3.467507319020702 -0.14899069063526965 3.4462554051009504 -0.13034471964859545 C 3.3644377830124337 -0.05845663873611551 3.2827774161009136 0.013431442176364383 3.1995894274700025 0.0837469713188832 C 3.143898629788116 0.13081119929127405 3.175641710516033 0.2227380827581072 3.178562163803102 0.28678586984607 C 3.1827256818226166 0.37839824295891267 3.186889199842131 0.4700106160717542 3.1910527178616457 0.5616229891845946 C 3.1965791140817923 0.6833160311542529 3.2139445786272134 0.810580399394628 3.199207522040155 0.931914000959723 C 3.199576009553024 0.9403000049095064 3.201305934208002 0.9485702587425157 3.2043295478051697 0.9564008785205375 C 3.271207928079061 0.9775180022885769 3.3443315853822244 0.8800197925510268 3.3846338407437835 0.8388863312539162 C 3.44171746999335 0.7804772655125262 3.494712464641019 0.7183165405485159 3.5495495913620703 0.6578631575061774 C 3.563927207544566 0.6690956701487524 3.5714305259898063 0.6741278358126263 3.5779229182972148 0.6801484625890475 C 3.6741181565682273 0.7693645663381402 3.7702085580545757 0.8587079718971805 3.8661941227562604 0.9481786792661718 C 3.9147410423974693 0.9936254254180311 3.933723988763421 0.9448987855745391 3.963961912797233 0.9096286958768539 C 3.997457265497392 0.8704946218301223 4.037961706086517 0.8381899154700773 4.074916672680589 0.8025154553172594 C 4.13485336014137 0.7445556900815725 4.19247614999778 0.6841247720645192 4.251873676851716 0.6256033811967028 C 4.284335638388757 0.5936356502159346 4.29215346718799 0.5933660699125124 4.326839466228262 0.6234916688198985 C 4.37293769811339 0.6635243438780354 4.417261193000991 0.7055339411612661 4.462685474127564 0.746352892104384 C 4.515905119028084 0.7941360008858992 4.569506669358453 0.8415596692628499 4.622928499486539 0.8891405928167976 C 4.629668007072084 0.895093824517362 4.635419053545083 0.9035631390498643 4.643147022243174 0.9063488021852234 C 4.652233836682147 0.9098105988075232 4.6622762795623505 0.9098105988075232 4.671363094001323 0.9063488021852234 C 4.676687304993903 0.9036754641762895 4.679742548432684 0.8913870953453135 4.679450503103977 0.8835468015207965 C 4.67841711194086 0.855398124838504 4.675429263577935 0.8273842383079212 4.673340016226416 0.7992130966003425 C 4.666840135577246 0.7098921560665884 4.660302813219268 0.6205936805581175 4.65372804915248 0.5313176700749318 Z M 3.3526661097630153 0.34036495515115694 C 3.333100829997661 0.33772694827714966 3.3151814334709844 0.32800795355081525 3.302299523073709 0.313047484404414 C 3.304624997517422 0.2889802498281713 3.321296973107525 0.2687198468867624 3.344466375533935 0.26180476172898626 C 3.3557906173377376 0.2585142641287159 3.36655839361278 0.2535468511635778 3.376411641489419 0.24706770514192794 C 3.40202177031449 0.22711876268871473 3.4038639023878723 0.20858511682846576 3.385397651603479 0.18173941161271134 C 3.3627152598390486 0.1461505708032348 3.367121573257854 0.09969914068650465 3.39609100363921 0.06900991473182921 C 3.4080384274627122 0.05823991949932367 3.423737618392118 0.052592728517523224 3.439807942844112 0.05328439703222454 C 3.4656666197158597 0.05897237917042186 3.4904004641753907 0.06891754069343836 3.512998995223131 0.08271358015576957 C 3.519873292960387 0.08673481968181179 3.522928536399167 0.10794180355099453 3.5188623668225554 0.11751190432246739 C 3.511669699877996 0.13214905313831404 3.5010594020372166 0.14483980153610831 3.4879280270049033 0.1545118009671106 C 3.4745106591105963 0.16332311073076738 3.4660709650056325 0.17797897866543788 3.4651847354232297 0.1940064406631961 C 3.4642985058408264 0.21003390266095434 3.471070913213911 0.22553091527232177 3.4834350219478734 0.23576779742349813 C 3.497399819401867 0.2484777009535868 3.512102528293703 0.26035238879837064 3.5274664715067683 0.2713299324498897 C 3.5109771429474677 0.28480894762098163 3.5027549436931027 0.2960414602635567 3.4919941965815156 0.29923149385404735 C 3.468338524956253 0.30610579159130336 3.4489736731604537 0.31403594551696146 3.4532644929899172 0.3436673138680749 C 3.4585161427987794 0.36934446229837603 3.479847379852698 0.388628119003689 3.5059225122583086 0.3912707024473079 C 3.5158969834849154 0.3928657192425542 3.526141035014944 0.39293311431841005 3.535621275685277 0.3936744601528195 C 3.544023195141923 0.4389414861023966 3.5435963596615054 0.4383349304196976 3.5142121065885292 0.4583512679487677 C 3.498486588888924 0.4691344800856395 3.4844684131109904 0.4825685652061589 3.4694842412457954 0.49456488870842974 C 3.462542548432684 0.5001137499538626 3.45519648516444 0.5052357757188763 3.4478279568709107 0.5102904064080344 C 3.4333151725449333 0.5189436550033114 3.415063981338335 0.5182213588262162 3.4012804244800794 0.5084482743346522 C 3.3849708161230607 0.5002260750802878 3.3844765855667878 0.48573613377136526 3.387397038853857 0.46992075597062066 C 3.3921006109421374 0.44814140158322024 3.3956773046348125 0.4261338628243079 3.398112855914874 0.40398590675870405 C 3.4012354944295096 0.3621110996271817 3.3924965995935863 0.35103584216160244 3.3526661097630153 0.34040988520172744 Z M 3.5278933069871856 0.3518221180465825 C 3.518648979376343 0.3562827639521866 3.5082397373630543 0.35773612981819414 3.498127148484362 0.3559781477243341 C 3.4933196330733396 0.3553940570669215 3.4895230438001494 0.34652037207928754 3.482266840633046 0.3377590122180789 L 3.529173813428439 0.3149120815030815 C 3.5434615695097946 0.3287730021040186 3.543955800066068 0.34204983204754213 3.527960702063041 0.35186704809715297 Z M 3.533352308131477 0.2327574840352875 C 3.4881751422830405 0.20939385773873104 3.486377940260228 0.19654386327562434 3.5290839533272984 0.16556459340740354 C 3.53083622529954 0.19191606806688533 3.532004406614368 0.2107417592558406 3.5334197032073327 0.23282487911114225 Z M 3.544584820774052 0.5951632719353284 C 3.542045424928381 0.6096177314551078 3.534962823861583 0.6228858041202407 3.524366298017417 0.6330393045660904 C 3.4997895603554627 0.660851005869106 3.4721800442800133 0.6859219740873329 3.4478054918456253 0.7139133955926306 C 3.399097507800241 0.7742724246069929 3.3451759369754175 0.8302311828978032 3.2866638654752474 0.8811430438152849 C 3.2769140445014893 0.8890282676903755 3.2662880875416134 0.8958127053264916 3.251348845726988 0.9064611273116528 C 3.2484059274146335 0.8912972352441756 3.2459572396585523 0.8830750359898113 3.2452608238747125 0.8747180465837351 C 3.238341596086886 0.788542209589899 3.2291084706946895 0.702456232697205 3.225671321826062 0.6161006755010878 C 3.222076917780438 0.5254093684249379 3.225671321826062 0.434381085969509 3.223065378892984 0.3435999187922181 C 3.2214204615204856 0.29315380040535177 3.216437303910849 0.24287193898281306 3.208148602103645 0.19308424938171487 C 3.198995709980402 0.157772160728062 3.2120649170092985 0.12042776671270283 3.2412395843486705 0.09852895795651634 C 3.28149690965966 0.06584234616662388 3.317890250621603 0.02841561404156384 3.3572265098959004 -0.0054841091137276254 C 3.4065147753715195 -0.04803286700380252 3.4571284773389626 -0.0890989332250563 3.507180553674277 -0.13077155512901012 L 3.517694185507727 -0.1272670111845258 C 3.5205697087442265 -0.06986887158096733 3.5324087770695005 -0.012156221623417285 3.511696023756592 0.04917329740504234 C 3.495206695197292 0.04389401646303165 3.483816927377721 0.04128807352995367 3.4733257605695558 0.03670520837178304 C 3.45259933532301 0.026751830332691684 3.428675895140782 0.0258283171270145 3.4072438359448283 0.034154257104628216 C 3.385811776748874 0.04248019708224193 3.368785836560057 0.05931175159988894 3.3602143582588253 0.08064679782953693 C 3.3418155025502876 0.12142081872208438 3.3280893721010605 0.16223976966520237 3.3647073633158553 0.2011491934590814 C 3.3664369161550542 0.20361016852378622 3.3674480652367764 0.20650361051148414 3.367627816602925 0.20950618286515738 C 3.36777381102662 0.21368311017409086 3.367616140800867 0.2178651252095411 3.367156051071937 0.22201920194898617 C 3.359989708005974 0.2256810010704663 3.351183418094195 0.23012907607692534 3.342444523258272 0.2346445461592413 C 3.3287617763207624 0.24036826046924414 3.31565748676798 0.24738680361088944 3.30331044921154 0.25560441475028606 C 3.258223143464244 0.2917506404340924 3.265389486530207 0.33647850577682625 3.318698991531868 0.3576854896460079 C 3.336199246229 0.3646945775349745 3.361382539573653 0.36757010077147345 3.368863392993608 0.38053242036100543 C 3.376344246413563 0.3934947399505363 3.3666168904650933 0.4169931563988033 3.364505178088289 0.4358637776383302 C 3.363494251950457 0.44484978775238937 3.362258675559774 0.4536560776641685 3.361494864700079 0.46257469270237406 C 3.3578106005533144 0.5048763353143111 3.365695824428402 0.5248028127422389 3.3901827019892155 0.5353613746262603 C 3.424171696559175 0.5546303922540083 3.467153441915742 0.5460187335672527 3.4910955955701093 0.515142851869626 C 3.5014969022771343 0.5028544830386479 3.5082588748879644 0.4859383189989305 3.532184126816649 0.4916669004466433 C 3.5428218406870147 0.5250946643138272 3.547014706304755 0.560238501582522 3.5445398907234815 0.595230667011183 Z M 3.55705290980731 -0.13647767155143872 C 3.5826630386323814 -0.11821360599461189 3.6072847063449056 -0.10320696910413146 3.6289409907197903 -0.08480811339559305 C 3.67757777046214 -0.04322535159278029 3.7247543235609553 0.00006475213170409333 3.7725149673171843 0.042703370122917916 C 3.7770079723742143 0.046657214573104344 3.7804675862681276 0.0524756561219582 3.785589612033142 0.05469969362518878 C 3.8393259525152206 0.07819811007345473 3.8445153733560904 0.12479057251485604 3.84303268168727 0.17443827839503745 C 3.8425833811815675 0.18935505518437679 3.842089150625294 0.2092366025617342 3.822814158930635 0.20840539662618474 C 3.8053363692587885 0.2076640507917742 3.7819502779369474 0.20977576316857843 3.7727845476206063 0.18715348270643256 C 3.7687695246092403 0.17600444881002814 3.76620984415083 0.16438395256963367 3.7651689040489402 0.1525798087925863 C 3.764068117809968 0.14379598390609233 3.7677748469820176 0.13379904765420048 3.7648768587202333 0.12600368388025396 C 3.7603242751421138 0.10778827665707724 3.7518953395415524 0.09076948941267082 3.740165330906568 0.07610886272193573 C 3.721249779616472 0.05813684249381518 3.7054568668410113 0.07900685098372001 3.6897538141666915 0.08909364733675185 C 3.6858886208859047 0.09096118606370518 3.6817949547455324 0.0923131532945663 3.67757777046214 0.09311488686279301 C 3.6503743988041824 0.07541445068006097 3.6299682949121057 0.04902192282895779 3.6196854003023087 0.01823895758738775 C 3.6131031478937596 -0.008719072754791973 3.5825057834553853 -0.0013730094865486153 3.5570753748325954 -0.01438025912665003 Z M 3.568869513107299 0.1958474474917865 L 3.6323781395884183 0.1883216640212621 C 3.6400162481853693 0.20198039939463297 3.6297946616806263 0.21781824222066287 3.6232798043479324 0.2335662249455539 C 3.6043193230072657 0.27939487652726047 3.6040946727544143 0.2793050164261194 3.6487551430212926 0.29972572441032097 C 3.681018783034169 0.31206861052529333 3.6975988205208026 0.3478476343628152 3.6861594101210677 0.38044256025986434 C 3.6843622080982557 0.3862834668340024 3.6771734000070078 0.3904619615370415 3.669715011612338 0.39841458048798384 C 3.6605340652521883 0.37916360606815214 3.6486996432842096 0.3612947631861493 3.634557247041078 0.345329725739176 C 3.6162246564321805 0.33519910624484883 3.5964171195160435 0.3280053241807791 3.575856135970981 0.3240104167435659 C 3.5734973083160404 0.28096742829721943 3.5710486205599588 0.2366663984349045 3.568802118031444 0.1959148425676412 Z M 3.577496082816797 0.3959434277066174 C 3.5765525517548205 0.38084693071499587 3.582820293809377 0.3667388948359218 3.598613206584838 0.36748024067033236 C 3.607015126041484 0.3678396810748956 3.6180005234059225 0.37911712376803897 3.622426133387097 0.3881255989073845 C 3.6408699191462053 0.425417540880734 3.6563932516182436 0.4360659628658954 3.685170949008521 0.4272147429035468 C 3.7141453102881474 0.41510578606014126 3.7290865451629114 0.38288417973530764 3.719609832770656 0.3529453693108404 C 3.711990514062163 0.3321660829945754 3.7005626196097285 0.31299007610339036 3.685912294842931 0.29640090066811775 C 3.6741466895020425 0.2850602135617959 3.6609983370696857 0.27524801025406664 3.6467782207961994 0.2671963677974243 C 3.6526054645585306 0.243065783423975 3.6562964957622173 0.21846893189960948 3.657808548211208 0.1936908050644106 C 3.657044737351513 0.154197290613119 3.6403082935140763 0.14343654350153023 3.6003654785570793 0.1503108412387873 C 3.5497293115643513 0.10693087741316293 3.5430122690040915 0.06269724262670273 3.580820906558999 0.03156071758148393 C 3.603283831019194 0.0544381464026677 3.6236931614526693 0.07924506737153258 3.641813450208181 0.10569530102247865 C 3.6460763599822315 0.11606235124807934 3.6546101319809337 0.12408232377041645 3.6652215986831393 0.12769409681834792 C 3.675833065385345 0.13130586986627935 3.6874875030904746 0.1301572595920219 3.697189737536076 0.12454345723672239 C 3.7066699782064094 0.12121863349451806 3.7167343095341567 0.11957868664870225 3.7326170824107576 0.11569223727437161 C 3.734863584939273 0.13393383780591317 3.7369079022402216 0.1493897752020968 3.7383905939090414 0.16477831752242456 C 3.7430633191683524 0.21276361153150486 3.748791900616066 0.22062637038130717 3.7975634705101267 0.23266762393414753 C 3.8237212369144093 0.2364053231813174 3.843527555354613 0.2582111366259606 3.8447400236089417 0.2846067623934143 C 3.8508055804359325 0.35276564910855934 3.8560848613779424 0.42099193089956133 3.862172883230218 0.49557581484625923 C 3.8138955438924307 0.4919589457753496 3.7757274659329605 0.49476707393599395 3.7513079834480028 0.5368216012697952 C 3.7545792858875413 0.5462730041577153 3.7587153941781652 0.5554025231846559 3.763663747354835 0.5640941419659675 C 3.7757269507771603 0.5787615184941268 3.7740403092267556 0.600340608918414 3.7598446930563596 0.6129555719611678 C 3.7517516244346845 0.6226597071368118 3.740582005145099 0.6293028164091145 3.7281914724295833 0.6317812631501263 C 3.721272244641757 0.6320957735041167 3.7115673537185723 0.6172014617400626 3.7068047683581202 0.6073393156398813 C 3.67910539218153 0.5499187110110376 3.6690410608537833 0.5446394300690279 3.6050606688416758 0.5621396847661589 C 3.5969978705038326 0.5493031799385606 3.590880910895956 0.5353431879621681 3.5869089284112747 0.520714178140343 C 3.5818093676715455 0.4794683917168061 3.5800346306740187 0.43768344468642595 3.5774511527662267 0.3960108227824721 Z M 3.8807739241663226 0.903765324277435 C 3.8628019039382027 0.8895449632719344 3.8515693912956275 0.8813002989922848 3.8407861791587554 0.8721570337012289 C 3.8101663496950957 0.846232394522166 3.778760244346456 0.8211164962533685 3.7495332464504756 0.7937091654054845 C 3.6984477789520445 0.7458137314975442 3.6479913321615975 0.6971095566793386 3.5988378568376893 0.6473270606474466 C 3.5910611450669316 0.6401942439292905 3.586879072079899 0.6299591992446316 3.587435522198851 0.6194214251169818 C 3.587991972317803 0.608883650989332 3.5932287107248437 0.5991459692825795 3.6017133800741883 0.592871839356243 C 3.6236167797272096 0.5788536635783089 3.6589542645007507 0.5822009523457964 3.670254172219181 0.6004874829279084 C 3.6756287525175333 0.6111296978695071 3.680384277546497 0.6220734060986208 3.6844969982499665 0.633263954818942 C 3.6916078196040627 0.6499094530830107 3.706910500922785 0.6616202942763468 3.7248357768953 0.6641344291371072 C 3.7427610528678157 0.6666485639978676 3.7606949499426805 0.6595993659792222 3.772110596862052 0.6455523236499203 C 3.7923291196186866 0.620458890406408 3.8067965959023233 0.592781979255103 3.7939016713886473 0.5588148610239568 C 3.7889369008006293 0.5457177512827133 3.784466360768884 0.5300596286589655 3.800304203594915 0.5238143516296926 C 3.812483371353936 0.5203619404104123 3.8254839843180117 0.5212514142356879 3.837079449986706 0.5263304344616317 C 3.8517041814473383 0.5322612011369097 3.8659470074781233 0.5402587501384236 3.86693546859067 0.5611287586283273 C 3.871877774153403 0.6653440109261387 3.878033191081534 0.7695143331733797 3.883559587301681 0.873729585471191 C 3.883096796235713 0.8838227961097939 3.8821145226250935 0.8938854769147676 3.8806166689893264 0.9038776494038602 Z M 3.882503731113279 0.26252364253811256 C 3.9344428695725457 0.2815290539293489 3.943339019585465 0.29716471152781254 3.938374248997447 0.3554839171680626 L 3.892141226960608 0.3575506994942963 C 3.888749008142551 0.32571775866523855 3.885671299678485 0.2955696947325661 3.882346475936283 0.2625910376139673 Z M 4.2506830305116035 0.4442432320696904 C 4.249980631350479 0.4532109569065683 4.249763152620089 0.46221007678477577 4.250031544778334 0.4712012624118701 C 4.2512671211690165 0.5762926506958025 4.2511547960425915 0.576157860544092 4.176099146564905 0.6484952419622751 C 4.15138761875124 0.6722632387139631 4.12809138753054 0.6974689970839018 4.103177674489308 0.7210348086080235 C 4.0501826798416385 0.7712216750950479 3.996581129511271 0.8208019858993746 3.9430694392820436 0.8704496917795571 C 3.937808324953488 0.8738889456253868 3.9322167092571614 0.8767938765254989 3.926377925495177 0.8791211915396236 C 3.911843054135685 0.797326034476394 3.9167853596984177 0.7168338488797013 3.9099784570370173 0.6375098445978369 C 3.9032389494514725 0.5594888117825104 3.9054854519799873 0.4807039681074893 3.903912900210027 0.4047946476689682 C 3.909057391000326 0.3999422022073754 3.9108995230737085 0.3966173784651743 3.9133257458045048 0.3961231479088996 C 3.936981417429768 0.3911808423461657 3.9611762496618743 0.3881031338821004 3.962748801431835 0.35550638219334785 C 3.964568468479932 0.32019136244509216 3.97847431913144 0.2766766084677561 3.9374981130113262 0.2592662138717662 C 3.881335549798451 0.23549821712007712 3.8822341508098575 0.19218564837030744 3.8819645705064354 0.1450989553726335 C 3.881023622739478 0.11829108818197037 3.892253663856563 0.09249502314537195 3.9125170048942395 0.07491821638182306 C 3.9903583175072845 0.000918423092538867 4.065593687187252 -0.07586703333210437 4.142087098283188 -0.15132705326492335 C 4.153275957249716 -0.16332725640677698 4.165794710723448 -0.17401454865587548 4.179401505281822 -0.18318245911926637 C 4.195980693942262 -0.1932692554722993 4.208471248000806 -0.18724862869587805 4.212425092450992 -0.1676815916725133 C 4.216840914734821 -0.14569519698288536 4.219671306646763 -0.12341993755918543 4.2208944069834935 -0.10102786165147462 C 4.22392718539699 -0.04464064818574667 4.225387412040524 0.011836425381120175 4.228083215074742 0.06822363884684707 C 4.228577445631015 0.07851262042744628 4.232194314701925 0.08862188180576341 4.23304798566276 0.09891086338636157 C 4.236956900062376 0.14642439186445344 4.241652090346973 0.19393792034254637 4.243089851965222 0.24154130892177933 C 4.2412641980051085 0.2545672153030436 4.235448892005807 0.26670794186299074 4.226443268228927 0.2762947030379066 C 4.199080867431613 0.31167711786201713 4.195441533335419 0.3311318297589576 4.224623601180829 0.36276258536044903 C 4.245346214447767 0.3845112355009762 4.254900272565654 0.4145903603647503 4.250525775334607 0.44431062714554614 Z M 4.276899715019374 0.15264720386844316 C 4.295646564918894 0.16531807288518013 4.304311285203553 0.18847208088830414 4.298488604318402 0.21033738880070796 L 4.28307759697279 0.2127636115315038 C 4.281010814646556 0.19275476234419658 4.278951520662083 0.1727159597898434 4.276899715019374 0.15264720386844316 Z M 4.2996792506585155 0.26202941198183893 C 4.301759785146356 0.2691148709224015 4.303262376824492 0.2763573628110165 4.304172255715546 0.2836856963567237 C 4.30472238892786 0.3126347805934717 4.325721484166817 0.3371290146093042 4.3542467970761445 0.34209476209811385 C 4.385166641297971 0.3444135877741311 4.4131057276567764 0.323696004394065 4.419867135934068 0.2934355173304777 C 4.425348602103645 0.2641186593333579 4.429751747059534 0.2346445461592413 4.434941167900404 0.205282758111551 C 4.441428612776141 0.17963213795942745 4.429432127787454 0.1528864861551925 4.405961285282561 0.1406733453914597 C 4.393766113813129 0.13316712904379985 4.3790154848843255 0.13102158301779177 4.365187264390013 0.13474257871618062 C 4.348934192806789 0.14428550693455 4.34221993796292 0.1643611289177196 4.349461746690408 0.1817618766379998 C 4.351708249218923 0.18888328965339268 4.35714478533793 0.19575758739064758 4.356942600110363 0.2026094201026183 C 4.355719064985545 0.2130660197954541 4.353461514423731 0.22337550069440149 4.350203092524818 0.233386504743275 L 4.340902572056766 0.23320678454099392 C 4.337995840875781 0.22745969674595484 4.335663158759874 0.22143987193071202 4.33393841421837 0.21523476431287342 C 4.329198293883202 0.18888328965339268 4.324952404104309 0.1624194898674856 4.320908699552982 0.13593322505629435 C 4.3165280656933405 0.12142400713257812 4.318665813982079 0.1057274361992509 4.326767011854828 0.09291814461865522 C 4.334868209727577 0.08010885303806059 4.348133902084812 0.07145011680843727 4.3631204820637794 0.06918963493411351 C 4.399064522520019 0.061034830755603786 4.42842631056771 0.07530012181167367 4.433413546181014 0.11187318297589782 C 4.438578701082008 0.14396642578487062 4.45201168546246 0.17416160681297438 4.4723903650507495 0.1994867815879824 C 4.491777681871834 0.22624262670259582 4.482230046125645 0.2569747812926819 4.47169394926691 0.2853705732531112 C 4.466642576224814 0.29783492766957886 4.4605635662527146 0.30985769152045406 4.453519743811222 0.3213146137093511 C 4.4329701164688515 0.35095112380617066 4.438012947320593 0.39130344975801334 4.4652240219847865 0.4149713041231411 C 4.4930501998552455 0.4437699812624577 4.500605696789249 0.48657853800852524 4.484319293477164 0.5231628658964231 C 4.478858280116836 0.536505631651181 4.468368309435996 0.54716505570456 4.4551147606064685 0.5528391642981072 C 4.438308129227373 0.5578042731301449 4.420590856509815 0.5485531340947862 4.415059620523046 0.5319242257576329 C 4.405327325967239 0.5136658572223535 4.399267394616659 0.4936772423518663 4.397222390446637 0.47308832453582494 C 4.396525974662797 0.41744245690450854 4.367860602398946 0.388148063932672 4.316820064951084 0.37572490494998423 C 4.3124843150710515 0.3746465837362969 4.308081170115162 0.37365812262375053 4.303857745361554 0.3721529659296452 C 4.299659686129337 0.37019813611855035 4.295579111238473 0.36800032648063985 4.291636771606432 0.3655707135210966 C 4.287323486751683 0.3305477391015461 4.275349628274698 0.2963784356428325 4.2996792506585155 0.2620294119818378 Z M 4.391516274024209 0.2435182311468752 C 4.390325627684096 0.27353150492783607 4.38340639989627 0.2921999409397945 4.361839975622526 0.3007141855228673 C 4.355093339369691 0.3022473263135197 4.348025428775348 0.30033730761719146 4.3429693543829995 0.2956146247831388 C 4.340453271551063 0.292671706470784 4.3429693543829995 0.2812370086006426 4.3469681288837565 0.2776426045550183 C 4.359571008068725 0.2662528367354453 4.373881229175366 0.25675013103982824 4.391516274024209 0.24340590602044782 Z M 4.3785090243841065 0.17540427448230067 C 4.401917580731233 0.17526948433059014 4.408994063696055 0.18603023144217673 4.40137842012439 0.21372960761876703 C 4.391359018847213 0.19690330368018755 4.38493402161566 0.18614255656860096 4.3785090243841065 0.17540427448229956 Z M 4.623849565523231 0.8364825735484099 C 4.580963832253879 0.7992804916762014 4.543784215406956 0.7674700158724289 4.507143759166876 0.7350305193606723 C 4.4457243800372765 0.6806876231958949 4.3849115565903745 0.6256483112472755 4.323334922283778 0.5714626702594939 C 4.278404871713478 0.5318343656564897 4.287705392181531 0.47969304196965656 4.290401195215749 0.4295735705584879 C 4.290715705569741 0.42364280388320763 4.304621556221249 0.4147691188955738 4.312866220500899 0.41384805285888215 C 4.331309349024857 0.4098655447346695 4.349977784458931 0.4195629432320048 4.357324505540211 0.4369420988520143 C 4.359862666179337 0.44699922986090357 4.361442275813705 0.4572742144349312 4.362042160850092 0.46762932339153207 C 4.363751279666027 0.48684747003930207 4.36807448028028 0.50574257761908 4.374892155313198 0.5237918866044052 C 4.393538126299872 0.5599381122882114 4.415149480624187 0.5954777822893188 4.46798722009486 0.5906702668782966 C 4.498765406896064 0.5699667851279789 4.518864372737921 0.5367597883638906 4.5229331138985165 0.49989006793202795 C 4.527001855059112 0.4630203475001663 4.514627440041904 0.4262297656213172 4.4891043438629 0.399313181499388 C 4.466953828931743 0.37386030785131363 4.4752658882872485 0.34874440958251607 4.488520253205486 0.3246843675021196 C 4.5013009567066335 0.30286015211026973 4.508801741053059 0.27834989679979605 4.510423652858508 0.25311079694363225 C 4.512620220074914 0.22178230419139633 4.504944497371145 0.19055303321137362 4.488475323154916 0.16381232143516028 C 4.478077790911399 0.14252033080590715 4.469626496906074 0.12033192456950775 4.463224634734408 0.09751803181868152 C 4.449610829411607 0.06067539035103631 4.424854371547371 0.03450363589383554 4.384305000907675 0.036076187663796666 C 4.344249860824253 0.03762627440847144 4.301746032984749 0.04164751393451366 4.28682925619541 0.09113796463769924 C 4.285818330057578 0.09453018345575726 4.281617370329255 0.0969564061865531 4.272137129658922 0.10702073751430075 C 4.2642519057838335 0.006849189767815789 4.2569732375914455 -0.08559438928057628 4.248885828488791 -0.18848420508656338 C 4.281280394949977 -0.16336830681776585 4.3081934952415875 -0.14559847181721164 4.331422331386433 -0.12389725739175736 C 4.4023153609722385 -0.053423183319538464 4.479977439027243 0.009896881289789161 4.563283857354466 0.06514593038278277 C 4.581304475956246 0.0765082168074489 4.591765031979458 0.09673310450064254 4.590623793126493 0.11800613487873896 C 4.5928702956550085 0.1896471005130831 4.596217584422496 0.2613105311727125 4.601204820035799 0.332816706655344 C 4.609067578885602 0.44451281237311036 4.619176840263919 0.5560741279391651 4.6272417843412885 0.6677926986822167 C 4.631150698740904 0.7219109445941445 4.6409903798158005 0.7841390646340104 4.623849565523231 0.8364825735484099 Z" fill="#ffd700" transform="matrix(1,0,0,1,0,0)" fill-rule="nonzero"></path></g><g clip-path="url(#SvgjsClipPath10003e3ca89f-df7a-4ea8-964b-ccc45b64cd1b)"><path d=" M 4.1514100837765255 0.3916750729024394 C 4.100836810433713 0.3769056587995502 4.046420977936052 0.395268535344674 4.015137240396805 0.4376609796611418 C 4.007041494874943 0.45128235876779144 4.002571069139287 0.4667509599292321 4.002152455781988 0.482591030231442 C 4.001433574972864 0.5286443320660001 4.007049831294151 0.5751020043556898 3.970544165205782 0.6128881768853119 C 3.9640720887329817 0.6229451366100155 3.9602113383521096 0.6344578942457774 3.959311652563207 0.6463835295854709 C 3.9499964584252814 0.6762003707144587 3.9642047210272424 0.7083058565939402 3.992537424959944 0.7214616440884414 C 4.022404326231887 0.7338592811576655 4.056867992390595 0.7233355208790228 4.074714487453023 0.696368210844928 C 4.083700497567083 0.6828891956738381 4.088328292775824 0.6666919124432451 4.096370771827908 0.6525164814883162 C 4.110231692428846 0.6280745339780723 4.1162747842305505 0.5994316267395063 4.156195134162262 0.5969604739581399 C 4.1861185478420815 0.5951183418847578 4.214222294473805 0.5457177512827122 4.216850702432167 0.5144239710604986 C 4.209835635943987 0.48420270200555227 4.200745709450561 0.4545009355856624 4.1896455568118505 0.4255298660071615 C 4.1812631282503165 0.41011167008562144 4.1677298281137425 0.3981288949353188 4.1514100837765255 0.3916750729024405 Z M 4.183400279782579 0.5290936325717023 C 4.181680906514629 0.5396550371654021 4.175761235243746 0.5490713386136326 4.166988931069154 0.5551988332806884 C 4.158216626894562 0.5613263279477453 4.14733822260181 0.5636435592617648 4.136830282366462 0.561622989184599 C 4.118591785093183 0.5585568393305548 4.100897379383115 0.5694538281970369 4.095427240765932 0.5871207928832438 C 4.08250985122697 0.613764312871432 4.071524453862532 0.641351363921596 4.0592360850315545 0.6682869292384914 C 4.054161139249697 0.6862250798034123 4.036971001890794 0.6979563788265486 4.018417134088437 0.6961435605920775 C 3.99640140930899 0.6938970580635616 3.9855508020962622 0.6824623601934213 3.9890778110660308 0.6604241703886891 C 3.991995223598985 0.6474907263121953 3.996602701687479 0.6349976627738854 4.0027814764899725 0.6232670185670512 C 4.02183181793178 0.5813023513343911 4.040837229323016 0.5401464250119963 4.031986009360668 0.49130746004207904 C 4.028555505437927 0.46216013951651425 4.047007655533709 0.43490258515222724 4.075343508161007 0.42725967295411615 C 4.087856527244836 0.42326089845336035 4.100796381809082 0.42052016536857184 4.113534051145762 0.4173301317780801 L 4.153297145900478 0.445344018308663 C 4.178865719026962 0.4649872917242356 4.190628484021916 0.49773869187063313 4.183400279782578 0.529161027647557 Z" fill="#ffd700" transform="matrix(1,0,0,1,0,0)" fill-rule="nonzero"></path></g><g clip-path="url(#SvgjsClipPath10003e3ca89f-df7a-4ea8-964b-ccc45b64cd1b)"><path d=" M 4.146377918112652 -0.031004377837658886 C 4.109854540630254 -0.04766425354139825 4.066650870025606 -0.036309201854219764 4.043038801800961 -0.0038441622679139253 C 4.03459943335648 0.008480284693708151 4.026793936965769 0.02122701270927768 4.019652710479121 0.03434638071684187 C 3.994289696932186 0.07981559189398635 3.994941182665455 0.0860159388726876 4.031873684234242 0.1275088405743593 C 4.026257427912954 0.13977474438005122 4.020641171591667 0.15031084123878624 4.01664239709091 0.16147595880550658 C 4.013834268930267 0.16951843785758997 4.009565914126088 0.18009946476689548 4.0125312974637275 0.1865918570743041 C 4.030188807337856 0.22543388579232837 4.052968342976998 0.2620743420324083 4.096797607308325 0.2740706655346782 C 4.147815679730901 0.28808884131261225 4.169988659687345 0.2711951422981791 4.185893897589231 0.23149944261931904 C 4.20374095490128 0.18976895464002302 4.198914189502846 0.14179820186648462 4.17311129820198 0.10445972463179548 C 4.178772484573837 0.09338446716621618 4.184119160591703 0.08437599202687068 4.188095470067175 0.07480589125539672 C 4.208403852924951 0.02571981100734483 4.197171340282376 -0.002563655826659128 4.146377918112652 -0.031004377837658886 Z M 4.16120483480085 0.20867497692960685 C 4.150870923169681 0.2533579122217692 4.105042271587975 0.257783522202944 4.075635553489714 0.2269165774611484 C 4.046228835391453 0.19604963271935283 4.060426731371668 0.15188339300874842 4.062381188571475 0.11551251707208948 C 4.0628598616323695 0.11065768811230586 4.062502737498867 0.10575672925891477 4.061325332383073 0.10102257576316803 C 4.058202693868438 0.09066619910671403 4.049396403956659 0.09338446716621729 4.042656896371113 0.07473849617954198 C 4.034299906965038 0.05153212505998134 4.05707944260418 0.019070163522940442 4.071591848938387 0.0028504152670620897 C 4.081771143427073 -0.0087329836284058 4.098409732903086 -0.012137791513458035 4.112320939780364 -0.0054841091137276254 C 4.175739706160343 0.01675626591857088 4.1785478343209865 0.02288921782141634 4.148534560540026 0.08212948949835697 C 4.143861835280715 0.09129521981469829 4.140402221386801 0.10104504078845222 4.135347590697643 0.11295150418958311 C 4.169696614358637 0.1378202871802427 4.169561824206927 0.17246135616994474 4.16120483480085 0.20867497692960685 Z" fill="#ffd700" transform="matrix(1,0,0,1,0,0)" fill-rule="nonzero"></path></g><g clip-path="url(#SvgjsClipPath10003e3ca89f-df7a-4ea8-964b-ccc45b64cd1b)"><path d=" M 4.127147856468563 0.4554757447122644 C 4.116455834994496 0.4517416229172404 4.104624287656964 0.4533269501345397 4.09529245061422 0.45974409951644124 C 4.081054146556521 0.47206992131954784 4.069748604889761 0.48742028339254173 4.062201468369194 0.5046741500867425 C 4.052833552825287 0.5288689823188496 4.072265799696941 0.5476946735078059 4.098415089128856 0.5434487837289121 C 4.125620234749173 0.5389557786718825 4.140020315956954 0.5189169761175283 4.140649336664938 0.4756718024436144 C 4.138941994743266 0.47290860433354165 4.135325125672358 0.45907014875788865 4.127147856468563 0.4554757447122644 Z" fill="#ffd700" transform="matrix(1,0,0,1,0,0)" fill-rule="nonzero"></path></g><g clip-path="url(#SvgjsClipPath10003e3ca89f-df7a-4ea8-964b-ccc45b64cd1b)"><path d=" M 4.116005203927129 0.021002155697463665 C 4.058854179601707 0.034211590565132455 4.062448583647331 0.07078465172935555 4.080487998951306 0.08502747776014125 C 4.086093451345761 0.08977214521121579 4.093536605499026 0.09174212733323511 4.100755269071275 0.09039162298356851 C 4.107973932643524 0.08904111863390307 4.1142014918721515 0.08451354982003795 4.1177125458488 0.07806331992174526 C 4.122564991310393 0.07114409213391876 4.125934745103165 0.018755653168947783 4.116005203927129 0.021002155697463665 Z" fill="#ffd700" transform="matrix(1,0,0,1,0,0)" fill-rule="nonzero"></path></g><g clip-path="url(#SvgjsClipPath10003e3ca89f-df7a-4ea8-964b-ccc45b64cd1b)"><path d=" M 4.088103642522972 0.16790095603705935 C 4.086036860196739 0.18535628068361987 4.103469719818015 0.2027891403048972 4.117105990166101 0.19820627514672656 C 4.1262043254065865 0.1951734967332317 4.132831507865706 0.1848395851020609 4.146310523036796 0.17257368129637002 L 4.10571622234653 0.1423132922372734 C 4.099515875367828 0.15082753682034522 4.089159498711375 0.15882508582185806 4.088103642522972 0.16790095603705935 Z" fill="#ffd700" transform="matrix(1,0,0,1,0,0)" fill-rule="nonzero"></path></g></g></g><defs><clipPath id="SvgjsClipPath1001"><path d=" M 3.16699267578125 -0.2505999999999998 h 1.5126150824997229 v 1.2171999999999996 h -1.5126150824997229 Z"></path></clipPath><clipPath id="SvgjsClipPath10003e3ca89f-df7a-4ea8-964b-ccc45b64cd1b"><path d=" M 3.16699267578125 -0.2505999999999998 L 4.679607758280973 -0.2505999999999998 L 4.679607758280973 0.9665999999999998 L 3.16699267578125 0.9665999999999998 Z"></path></clipPath></defs></svg>